<svg id="Capa_2" data-name="Capa 2" xmlns="http://www.w3.org/2000/svg" viewBox="0 0 1597.97 446.85"><defs><style>.cls-1{fill:#304697;}</style></defs><title>advent-logotype-blue</title><path class="cls-1" d="M493,241.84a66.79,66.79,0,0,0-64.8,51h20.84a46.68,46.68,0,1,1,0,31.46H428.23A66.69,66.69,0,1,0,493,241.84Z" transform="translate(-49.35 -86.11)"/><path class="cls-1" d="M519.09,301.81a26.92,26.92,0,0,0-52.14,0H119.44l-.07-.07L99.46,281.83a26.94,26.94,0,1,0-9.52,9.51l10.47,10.47,11.48,11.49c.17.16.34.33.53.48s.18.14.28.2a2.61,2.61,0,0,0,.3.2,7,7,0,0,0,3.66,1.09H467a26.93,26.93,0,0,0,52.13,0,27.38,27.38,0,0,0,0-13.46ZM86.36,268.74a10.11,10.11,0,0,1-9.51,9.51h-.56a10.09,10.09,0,1,1,10.08-10.1C86.37,268.36,86.37,268.55,86.36,268.74Zm414.18,46.53a10.1,10.1,0,1,1,2.58-6.74A10.07,10.07,0,0,1,500.54,315.27Z" transform="translate(-49.35 -86.11)"/><path class="cls-1" d="M836.39,272.87H795.65l-7.57,18.72h-27.8l42.53-96.35h26.84l42.67,96.35H844Zm-8-20.1L816,221.94l-12.38,30.83Z" transform="translate(-49.35 -86.11)"/><path class="cls-1" d="M880,195.24h45.56q15.82,0,28.08,5.92a44.58,44.58,0,0,1,19,16.79q6.75,10.88,6.74,25.46t-6.74,25.47a44.65,44.65,0,0,1-19,16.79q-12.25,5.93-28.08,5.92H880Zm44.46,74.6q12.38,0,19.89-7t7.5-19.41q0-12.39-7.5-19.4t-19.89-7H907.28v52.86Z" transform="translate(-49.35 -86.11)"/><path class="cls-1" d="M1088.14,195.24l-41.29,96.35H1020l-41.16-96.35h29.46L1034.46,258l26.7-62.76Z" transform="translate(-49.35 -86.11)"/><path class="cls-1" d="M1171.14,270.53v21.06h-77.35V195.24h75.56V216.3h-48.59v16.24h42.81v20.37h-42.81v17.62Z" transform="translate(-49.35 -86.11)"/><path class="cls-1" d="M1278,195.24v96.35h-22.43L1213,240.25v51.34h-26.7V195.24h22.44l42.53,51.34V195.24Z" transform="translate(-49.35 -86.11)"/><path class="cls-1" d="M1317.73,216.85h-29.59V195.24h86.3v21.61H1345v74.74h-27.25Z" transform="translate(-49.35 -86.11)"/><path class="cls-1" d="M783.62,414.78a47.28,47.28,0,0,1-18.38-17.68,50.9,50.9,0,0,1,0-50.38A47.38,47.38,0,0,1,783.62,329a56.91,56.91,0,0,1,52.44,0,47,47,0,0,1,18.31,17.62,51.62,51.62,0,0,1,0,50.51,47,47,0,0,1-18.31,17.62,56.91,56.91,0,0,1-52.44,0ZM829,404.12a35.34,35.34,0,0,0,13.35-13.29,39.07,39.07,0,0,0,0-37.85A35.39,35.39,0,0,0,829,339.7a37.87,37.87,0,0,0-19.06-4.82,38.61,38.61,0,0,0-19.2,4.82A35,35,0,0,0,777.22,353a39.07,39.07,0,0,0,0,37.85,35,35,0,0,0,13.49,13.29,38.6,38.6,0,0,0,19.2,4.81A37.86,37.86,0,0,0,829,404.12Z" transform="translate(-49.35 -86.11)"/><path class="cls-1" d="M895.8,335.71v33.58h48.31v11.84H895.8v38.95H882V323.73h68v12Z" transform="translate(-49.35 -86.11)"/><path class="cls-1" d="M1022.5,415.61a47.89,47.89,0,0,1-18.93-17.83,52.1,52.1,0,0,1,0-51.75,47.86,47.86,0,0,1,18.93-17.82,56.93,56.93,0,0,1,27.18-6.41,58.35,58.35,0,0,1,23.81,4.69A45.8,45.8,0,0,1,1091.11,340l-17.34,15.7q-9.36-11.3-22.71-11.29a28.06,28.06,0,0,0-14,3.44,23.86,23.86,0,0,0-9.5,9.7,32.39,32.39,0,0,0,0,28.77,23.88,23.88,0,0,0,9.5,9.71,28.06,28.06,0,0,0,14,3.44q13.35,0,22.71-11.29l17.34,15.69a45.82,45.82,0,0,1-17.62,13.49,58.35,58.35,0,0,1-23.81,4.68A56.92,56.92,0,0,1,1022.5,415.61Z" transform="translate(-49.35 -86.11)"/><path class="cls-1" d="M1122.29,415.54a49.26,49.26,0,0,1,0-87.27,61.51,61.51,0,0,1,54.92,0,49.27,49.27,0,0,1,0,87.27,61.51,61.51,0,0,1-54.92,0ZM1163,396a24.79,24.79,0,0,0,9.36-9.71,31.8,31.8,0,0,0,0-28.77,24.76,24.76,0,0,0-9.36-9.7,27.1,27.1,0,0,0-26.43,0,24.83,24.83,0,0,0-9.36,9.7,31.8,31.8,0,0,0,0,28.77,24.86,24.86,0,0,0,9.36,9.71,27.1,27.1,0,0,0,26.43,0Z" transform="translate(-49.35 -86.11)"/><path class="cls-1" d="M1259.72,394.48h-14.86v25.6H1217.6V323.73h44.05q13.08,0,22.71,4.34a35,35,0,0,1,15.21,49.55,33,33,0,0,1-14,12.18l20.78,30.28H1277.2Zm12.94-45.56q-4.28-3.72-12.66-3.72h-15.14v28.22H1260q8.38,0,12.66-3.65t4.27-10.39Q1276.93,352.65,1272.66,348.92Z" transform="translate(-49.35 -86.11)"/><path class="cls-1" d="M1340.59,415.54a49.26,49.26,0,0,1,0-87.27,61.51,61.51,0,0,1,54.92,0,49.27,49.27,0,0,1,0,87.27,61.51,61.51,0,0,1-54.92,0ZM1381.26,396a24.86,24.86,0,0,0,9.36-9.71,31.8,31.8,0,0,0,0-28.77,24.83,24.83,0,0,0-9.36-9.7,27.1,27.1,0,0,0-26.43,0,24.76,24.76,0,0,0-9.36,9.7,31.8,31.8,0,0,0,0,28.77,24.79,24.79,0,0,0,9.36,9.71,27.1,27.1,0,0,0,26.43,0Z" transform="translate(-49.35 -86.11)"/><path class="cls-1" d="M1527.57,323.73v96.35h-22.43l-42.54-51.34v51.34h-26.7V323.73h22.44l42.53,51.34V323.73Z" transform="translate(-49.35 -86.11)"/><path class="cls-1" d="M1611.4,401.36h-40.75l-7.57,18.72h-27.8l42.53-96.35h26.84l42.67,96.35H1619Zm-8-20.09L1591,350.43l-12.39,30.84Z" transform="translate(-49.35 -86.11)"/><path class="cls-1" d="M651,151.54a223.44,223.44,0,0,0-380.8,141.27h50.19C328.85,205,403,136.11,493,136.11c95.63,0,173.43,77.79,173.43,173.42S588.66,483,493,483C402.37,483,327.74,413,320.24,324.27H270.09A223.43,223.43,0,1,0,651,151.54Z" transform="translate(-49.35 -86.11)"/><path class="cls-1" d="M493,176.15c-67.89,0-124.09,51-132.34,116.66h40.46a93.39,93.39,0,1,1-.34,31.46H360.46c7.36,66.64,64,118.65,132.57,118.65,73.55,0,133.39-59.84,133.39-133.39S566.58,176.15,493,176.15Z" transform="translate(-49.35 -86.11)"/></svg>