<svg id="Capa_1" data-name="Capa 1" xmlns="http://www.w3.org/2000/svg" viewBox="0 0 239.88 306.4"><defs><style>.cls-1{fill:#1d1d1b;}</style></defs><title>logotype</title><path class="cls-1" d="M499.85,413.9V287.83l-.12,0,.09-26.55a6.08,6.08,0,0,0,0-.61c0-.1,0-.2,0-.3l-.06-.3a5.93,5.93,0,0,0-1.55-2.86L397.61,156.65h-.11a12.19,12.19,0,0,0-9.24-4,12.56,12.56,0,0,0-7.78,2.63l-.3.3L318,217.78,308.73,227,278.1,257.63a6,6,0,0,0-.92,3.11V431.43a11.48,11.48,0,0,0,11.46,11.35v0L405.38,442a22.94,22.94,0,1,0-.08-11.46l-105.19.74-11.47.08V263.12l.07-.07,17-17,.12.07,82.51-82.51,7.24,7.24,92.77,92.77v.18h.09V413.9a22.94,22.94,0,1,0,11.46,0Zm-78.76,16.52a8.58,8.58,0,1,1-2.14,5.73A8.57,8.57,0,0,1,421.09,430.42Zm73,14.28a8.59,8.59,0,1,1,8.6-8.59A8.59,8.59,0,0,1,494.13,444.7Z" transform="translate(-277.18 -152.62)"/><path class="cls-1" d="M342,277.44V318H330.56V302.21H314.9V318H303.41v-40.6H314.9V292.7h15.66V277.44Z" transform="translate(-277.18 -152.62)"/><path class="cls-1" d="M377.36,310.16H360.2L357,318H345.29l17.92-40.6h11.31l18,40.6H380.55ZM374,301.69l-5.22-13-5.22,13Z" transform="translate(-277.18 -152.62)"/><path class="cls-1" d="M404,316.16a20.12,20.12,0,0,1-8-7.51,22,22,0,0,1,0-21.81,20.12,20.12,0,0,1,8-7.51,24,24,0,0,1,11.45-2.7,24.63,24.63,0,0,1,10,2,19.3,19.3,0,0,1,7.43,5.69l-7.31,6.61a12,12,0,0,0-9.57-4.76,11.9,11.9,0,0,0-5.89,1.45,10.1,10.1,0,0,0-4,4.09,13.64,13.64,0,0,0,0,12.12,10,10,0,0,0,4,4.09,11.8,11.8,0,0,0,5.89,1.45,12,12,0,0,0,9.57-4.75l7.31,6.61a19.28,19.28,0,0,1-7.43,5.68,24.46,24.46,0,0,1-10,2A24,24,0,0,1,404,316.16Z" transform="translate(-277.18 -152.62)"/><path class="cls-1" d="M453.63,303.31l-4.29,4.58V318H438v-40.6h11.37v16.88l15.72-16.88H477.7l-16.59,18L478.57,318H465.23Z" transform="translate(-277.18 -152.62)"/><path class="cls-1" d="M314.35,336.41V345h17.31v8.56H314.35V367H303.27v-39.2H334v8.57Z" transform="translate(-277.18 -152.62)"/><path class="cls-1" d="M356.35,356.63H350.3V367H339.22v-39.2h17.92a22.34,22.34,0,0,1,9.24,1.77,13.66,13.66,0,0,1,6.05,5,13.87,13.87,0,0,1,2.12,7.7,13.61,13.61,0,0,1-2,7.42,13.38,13.38,0,0,1-5.68,5L375.34,367H363.47Zm5.27-18.54a7.65,7.65,0,0,0-5.15-1.51H350.3v11.48h6.17a7.76,7.76,0,0,0,5.15-1.48,5.28,5.28,0,0,0,1.73-4.23A5.37,5.37,0,0,0,361.62,338.09Z" transform="translate(-277.18 -152.62)"/><path class="cls-1" d="M389.25,365.2a20.05,20.05,0,0,1,0-35.51,25.06,25.06,0,0,1,22.35,0,20.05,20.05,0,0,1,0,35.51,25.06,25.06,0,0,1-22.35,0Zm16.55-8a10,10,0,0,0,3.81-3.94,12.94,12.94,0,0,0,0-11.71,10.06,10.06,0,0,0-3.81-3.95,11,11,0,0,0-10.75,0,10.06,10.06,0,0,0-3.81,3.95,12.94,12.94,0,0,0,0,11.71,10,10,0,0,0,3.81,3.94,11,11,0,0,0,10.75,0Z" transform="translate(-277.18 -152.62)"/><path class="cls-1" d="M463.42,367l-.11-20.77-10.08,16.91H448.3l-10-16.35V367H428v-39.2h9.13l13.78,22.63,13.44-22.63h9.12l.12,39.2Z" transform="translate(-277.18 -152.62)"/><path class="cls-1" d="M339.68,378.24V416H329V401.3H314.41V416H303.72v-37.8h10.69v14.21H329V378.24Z" transform="translate(-277.18 -152.62)"/><path class="cls-1" d="M355.53,414.26a19.32,19.32,0,0,1,0-34.23,24.1,24.1,0,0,1,21.54,0,19.32,19.32,0,0,1,0,34.23,24.1,24.1,0,0,1-21.54,0Zm16-7.67a9.73,9.73,0,0,0,3.67-3.8,12.48,12.48,0,0,0,0-11.29,9.76,9.76,0,0,0-3.67-3.81,10.63,10.63,0,0,0-10.37,0,9.62,9.62,0,0,0-3.67,3.81,12.48,12.48,0,0,0,0,11.29,9.59,9.59,0,0,0,3.67,3.8,10.63,10.63,0,0,0,10.37,0Z" transform="translate(-277.18 -152.62)"/><path class="cls-1" d="M402.8,396.55,411,410a31.17,31.17,0,0,1,10.24-4.48l5.66-9.5.05,8.7c.47,0,.95,0,1.43,0a30.87,30.87,0,0,1,8.43,1.17l-.08-27.61H428l-13,21.82-13.29-21.82h-8.8V416h9.88Z" transform="translate(-277.18 -152.62)"/><path class="cls-1" d="M455,407.78v-6.91h16.8v-8H455v-6.37h19.06v-8.27H444.44v30.89a31.12,31.12,0,0,1,8,6.91h22.36v-8.26Z" transform="translate(-277.18 -152.62)"/></svg>