<svg id="Capa_7" data-name="Capa 7" xmlns="http://www.w3.org/2000/svg" viewBox="0 0 348.7 488.84"><defs><style>.cls-1{fill:#1e1e1e;}</style></defs><title>logo</title><path class="cls-1" d="M538.56,731.73h-6.89v11.86H519.05V699h20.4A25.45,25.45,0,0,1,550,701a16.22,16.22,0,0,1,7,22.95,15.23,15.23,0,0,1-6.47,5.64l9.63,14H546.66Zm6-21.1q-2-1.73-5.86-1.72h-7V722h7a8.85,8.85,0,0,0,5.86-1.69,6,6,0,0,0,2-4.82A6.07,6.07,0,0,0,544.55,710.63Z" transform="translate(-480.51 -255.64)"/><path class="cls-1" d="M576,741.48a22.82,22.82,0,0,1,0-40.41,28.45,28.45,0,0,1,25.43,0,22.8,22.8,0,0,1,0,40.41,28.45,28.45,0,0,1-25.43,0Zm18.84-9.05a11.48,11.48,0,0,0,4.33-4.49,14.68,14.68,0,0,0,0-13.33,11.48,11.48,0,0,0-4.33-4.49,12.57,12.57,0,0,0-12.24,0,11.44,11.44,0,0,0-4.34,4.49,14.76,14.76,0,0,0,0,13.33,11.44,11.44,0,0,0,4.34,4.49,12.57,12.57,0,0,0,12.24,0Z" transform="translate(-480.51 -255.64)"/><path class="cls-1" d="M625.29,739.06q-5.52-5.41-5.52-15.36V699h12.62v24.36q0,10.7,8.48,10.7t8.42-10.7V699h12.43V723.7q0,9.94-5.52,15.36t-15.46,5.42Q630.8,744.48,625.29,739.06Z" transform="translate(-480.51 -255.64)"/><path class="cls-1" d="M712.71,712.32v31.27H702.32l-19.69-23.78v23.78H670.26V704.21a45,45,0,0,0,22.92,9.88l7.17,8.65v-8.31A45,45,0,0,0,712.71,712.32Z" transform="translate(-480.51 -255.64)"/><path class="cls-1" d="M764.54,709.48a20.58,20.58,0,0,0-8.8-7.77,29.47,29.47,0,0,0-13-2.75H733a45.48,45.48,0,0,1-11.39,9.4v35.23h21.1a29.61,29.61,0,0,0,13-2.74,20.6,20.6,0,0,0,8.8-7.78,23.86,23.86,0,0,0,0-23.59Zm-13.1,20.78a12.94,12.94,0,0,1-9.21,3.26h-8V709h8a12.94,12.94,0,0,1,9.21,3.25q3.48,3.24,3.48,9T751.44,730.26Z" transform="translate(-480.51 -255.64)"/><path class="cls-1" d="M574.78,437.05v59H558.09v-23H535.33v23H518.64v-59h16.69v22.17h22.76V437.05Z" transform="translate(-480.51 -255.64)"/><path class="cls-1" d="M626.12,484.59h-25l-4.63,11.47h-17l26-59H622l26.13,59H630.75Zm-4.89-12.3-7.59-18.89-7.59,18.89Z" transform="translate(-480.51 -255.64)"/><path class="cls-1" d="M664.77,493.32a29.17,29.17,0,0,1-11.59-10.92,31.86,31.86,0,0,1,0-31.69,29.17,29.17,0,0,1,11.59-10.92,34.91,34.91,0,0,1,16.64-3.92A35.77,35.77,0,0,1,696,438.74,28,28,0,0,1,706.79,447l-10.62,9.61q-5.74-6.92-13.91-6.92a17.21,17.21,0,0,0-8.56,2.11,14.6,14.6,0,0,0-5.81,5.95,19.76,19.76,0,0,0,0,17.61,14.6,14.6,0,0,0,5.81,5.95,17.21,17.21,0,0,0,8.56,2.1q8.18,0,13.91-6.91l10.62,9.61A28,28,0,0,1,696,494.37a35.77,35.77,0,0,1-14.59,2.87A34.91,34.91,0,0,1,664.77,493.32Z" transform="translate(-480.51 -255.64)"/><path class="cls-1" d="M737,474.65l-6.24,6.66v14.75H714.21v-59h16.52v24.53l22.84-24.53H772l-24.11,26.13,25.37,32.88H753.83Z" transform="translate(-480.51 -255.64)"/><path class="cls-1" d="M534.54,522.75v12.54h25.15v12.45H534.54v19.54H518.42v-57h44.69v12.45Z" transform="translate(-480.51 -255.64)"/><path class="cls-1" d="M595.58,552.14h-8.79v15.14H570.68v-57h26a32.5,32.5,0,0,1,13.43,2.57,19.92,19.92,0,0,1,8.79,7.32A20.12,20.12,0,0,1,622,531.38a19.83,19.83,0,0,1-2.89,10.79,19.57,19.57,0,0,1-8.26,7.2l12.29,17.91H605.92Zm7.65-26.94q-2.52-2.21-7.49-2.2h-9v16.68h9c3.31,0,5.81-.71,7.49-2.15a7.66,7.66,0,0,0,2.52-6.15A7.75,7.75,0,0,0,603.23,525.2Z" transform="translate(-480.51 -255.64)"/><path class="cls-1" d="M643.4,564.59a29.12,29.12,0,0,1,0-51.6,36.32,36.32,0,0,1,32.47,0,29.13,29.13,0,0,1,0,51.6,36.41,36.41,0,0,1-32.47,0ZM667.45,553a14.56,14.56,0,0,0,5.53-5.74,18.75,18.75,0,0,0,0-17,14.62,14.62,0,0,0-5.53-5.74,16.06,16.06,0,0,0-15.63,0,14.62,14.62,0,0,0-5.53,5.74,18.75,18.75,0,0,0,0,17,14.56,14.56,0,0,0,5.53,5.74,16,16,0,0,0,15.63,0Z" transform="translate(-480.51 -255.64)"/><path class="cls-1" d="M751.2,567.28l-.16-30.2-14.65,24.58h-7.17l-14.57-23.77v29.39H699.76v-57H713l20,32.88,19.53-32.88h13.27l.16,57Z" transform="translate(-480.51 -255.64)"/><path class="cls-1" d="M571.35,583.55v54.94H555.81V617.07H534.62v21.42H519.08V583.55h15.54v20.64h21.19V583.55Z" transform="translate(-480.51 -255.64)"/><path class="cls-1" d="M594.38,635.9a28.1,28.1,0,0,1,0-49.76,35.07,35.07,0,0,1,31.32,0,28.09,28.09,0,0,1,0,49.76,35.07,35.07,0,0,1-31.32,0Zm23.19-11.14a14.1,14.1,0,0,0,5.34-5.54,18.13,18.13,0,0,0,0-16.4,14.14,14.14,0,0,0-5.34-5.53,15.46,15.46,0,0,0-15.07,0,14,14,0,0,0-5.33,5.53,18.13,18.13,0,0,0,0,16.4,14,14,0,0,0,5.33,5.54,15.46,15.46,0,0,0,15.07,0Z" transform="translate(-480.51 -255.64)"/><path class="cls-1" d="M712.58,626a45.24,45.24,0,0,0-13.64-2.09h-.69l-.08-14.52-9.32,15.65a44.94,44.94,0,0,0-13.34,5.39l-12.42-20.25v28.33H648.73V583.58h12.79l19.31,31.71,18.83-31.71h12.8Z" transform="translate(-480.51 -255.64)"/><path class="cls-1" d="M767.71,626.51v12H732.24a45.43,45.43,0,0,0-8.64-7.3V583.58h43.09v12H739v9.26h24.41v11.62H739v10Z" transform="translate(-480.51 -255.64)"/><path class="cls-1" d="M497.16,660.72v0h0Z" transform="translate(-480.51 -255.64)"/><path class="cls-1" d="M732.26,665.19a33.39,33.39,0,0,0-65.5-4.47H497.16V416.24l.1-.1,24.64-24.65.17.1L642,271.67,787.35,417v.26h.13V563.34h0v73.5a33.41,33.41,0,0,0-25,30.15c0,.72-.08,1.46-.08,2.2a33.31,33.31,0,0,0,10.64,24.43,31.88,31.88,0,0,1,5.58-3.72A35.6,35.6,0,0,1,795.43,686a35,35,0,0,1,13.71,2.61,26.65,26.65,0,0,1,8.61,5.73,33.31,33.31,0,0,0,11.46-25.17c0-.71,0-1.4-.07-2.09a33.41,33.41,0,0,0-25-30.26v-73.5h0V452.15l-.18,0,.13-38.59a8.7,8.7,0,0,0,0-.89c0-.14,0-.29-.06-.43l-.09-.44a8.66,8.66,0,0,0-2.25-4.16L655.54,261.49h-.16A17.71,17.71,0,0,0,642,255.64a18.25,18.25,0,0,0-11.31,3.82l-.43.44-90.45,90.44-13.4,13.4-44.52,44.52a8.7,8.7,0,0,0-1.33,4.52V660.86a16.69,16.69,0,0,0,16.65,16.5v0h.67v-.06H666.76A33.39,33.39,0,0,0,732.48,669a32,32,0,0,0-.22-3.81Zm71.87-5.13a12.43,12.43,0,0,1,4.07,9.21v.13a12.46,12.46,0,0,1-24.91-.13c0-.37,0-.73,0-1.08a12.46,12.46,0,0,1,20.8-8.13ZM699,681.56a12.46,12.46,0,0,1-12.46-12.46c0-.23,0-.46,0-.69h0a12.46,12.46,0,0,1,24.89.52,1,1,0,0,1,0,.17A12.46,12.46,0,0,1,699,681.56Z" transform="translate(-480.51 -255.64)"/><path class="cls-1" d="M814.31,733.58v10H779.57v-7.91l16.7-15.62a15.89,15.89,0,0,0,3.25-3.92,7.16,7.16,0,0,0,.83-3.28,4.15,4.15,0,0,0-1.47-3.38,6.6,6.6,0,0,0-4.27-1.21,9.39,9.39,0,0,0-4.56,1.12,9.13,9.13,0,0,0-3.41,3.22l-9.37-5.23a18.3,18.3,0,0,1,7.33-6.82,23.59,23.59,0,0,1,11.16-2.49,23.11,23.11,0,0,1,9,1.66,14,14,0,0,1,6.12,4.75,12.09,12.09,0,0,1,2.2,7.17,15.36,15.36,0,0,1-1.57,6.85,26.07,26.07,0,0,1-6,7.3l-8.41,7.78Z" transform="translate(-480.51 -255.64)"/></svg>