<svg id="Capa_1" data-name="Capa 1" xmlns="http://www.w3.org/2000/svg" viewBox="0 0 239.88 306.4"><defs><style>.cls-1{fill:#1d1d1b;}</style></defs><title>logotype-wo</title><path class="cls-1" d="M499.85,413.9V287.83l-.12,0,.09-26.55a6.08,6.08,0,0,0,0-.61c0-.1,0-.2,0-.3l-.06-.3a5.93,5.93,0,0,0-1.55-2.86L397.61,156.65h-.11a12.19,12.19,0,0,0-9.24-4,12.56,12.56,0,0,0-7.78,2.63l-.3.3L318,217.78,308.73,227,278.1,257.63a6,6,0,0,0-.92,3.11V431.43a11.48,11.48,0,0,0,11.46,11.35v0L405.38,442a22.94,22.94,0,1,0-.08-11.46l-105.19.74-11.47.08V263.12l.07-.07,17-17,.12.07,82.51-82.51,7.24,7.24,92.77,92.77v.18h.09V413.9a22.94,22.94,0,1,0,11.46,0Zm-78.76,16.52a8.58,8.58,0,1,1-2.14,5.73A8.57,8.57,0,0,1,421.09,430.42Zm73,14.28a8.59,8.59,0,1,1,8.6-8.59A8.59,8.59,0,0,1,494.13,444.7Z" transform="translate(-277.18 -152.62)"/></svg>