<svg id="Capa_4" data-name="Capa 4" xmlns="http://www.w3.org/2000/svg" viewBox="0 0 348.7 489"><defs><style>.cls-1{fill:#1e1e1e;}.cls-2{fill:none;}</style></defs><title>logo</title><path class="cls-1" d="M591.52,607.6h-6.88v11.85H572V574.83h20.4a25.4,25.4,0,0,1,10.51,2A16.24,16.24,0,0,1,610,599.79a15.35,15.35,0,0,1-6.47,5.64l9.62,14H599.62Zm6-21.1c-1.31-1.15-3.27-1.72-5.86-1.72h-7v13.06h7c2.59,0,4.55-.56,5.86-1.68a6,6,0,0,0,2-4.82A6.06,6.06,0,0,0,597.51,586.5Z" transform="translate(-533.47 -131.5)"/><path class="cls-1" d="M629,617.35a22.81,22.81,0,0,1,0-40.41,28.47,28.47,0,0,1,25.44,0,22.82,22.82,0,0,1,0,40.41,28.47,28.47,0,0,1-25.44,0Zm18.84-9.05a11.47,11.47,0,0,0,4.34-4.5,14.74,14.74,0,0,0,0-13.32,11.51,11.51,0,0,0-4.34-4.49,12.5,12.5,0,0,0-12.24,0,11.41,11.41,0,0,0-4.33,4.49,14.66,14.66,0,0,0,0,13.32,11.38,11.38,0,0,0,4.33,4.5,12.57,12.57,0,0,0,12.24,0Z" transform="translate(-533.47 -131.5)"/><path class="cls-1" d="M678.25,614.93q-5.52-5.41-5.52-15.36V574.83h12.63v24.35q0,10.71,8.48,10.71t8.41-10.71V574.83h12.43v24.74q0,9.93-5.51,15.36t-15.46,5.42Q683.77,620.35,678.25,614.93Z" transform="translate(-533.47 -131.5)"/><path class="cls-1" d="M765.68,588.19v31.26H755.29l-19.7-23.77v23.77H723.22V580.08A45.15,45.15,0,0,0,746.15,590l7.16,8.65V590.3A45.16,45.16,0,0,0,765.68,588.19Z" transform="translate(-533.47 -131.5)"/><path class="cls-1" d="M817.5,585.35a20.63,20.63,0,0,0-8.79-7.78,29.54,29.54,0,0,0-13-2.74H786a45.52,45.52,0,0,1-11.4,9.4v35.22h21.1a29.54,29.54,0,0,0,13-2.74,20.61,20.61,0,0,0,8.79-7.77,23.79,23.79,0,0,0,0-23.59Zm-13.1,20.78a12.9,12.9,0,0,1-9.21,3.25h-8V584.9h8a13,13,0,0,1,9.21,3.25q3.48,3.26,3.48,9T804.4,606.13Z" transform="translate(-533.47 -131.5)"/><path class="cls-1" d="M627.74,312.92v59H611.05v-23H588.29v23H571.6v-59h16.69v22.17h22.76V312.92Z" transform="translate(-533.47 -131.5)"/><path class="cls-1" d="M679.08,360.46h-25l-4.64,11.47h-17l26-59H675l26.13,59H683.72Zm-4.89-12.31-7.59-18.88L659,348.15Z" transform="translate(-533.47 -131.5)"/><path class="cls-1" d="M717.73,369.19a29.38,29.38,0,0,1-11.59-10.92,31.88,31.88,0,0,1,0-31.7,29.29,29.29,0,0,1,11.59-10.91,35,35,0,0,1,16.65-3.92A35.76,35.76,0,0,1,749,314.6a28.07,28.07,0,0,1,10.79,8.27l-10.62,9.61q-5.73-6.92-13.91-6.92a17.24,17.24,0,0,0-8.56,2.11,14.7,14.7,0,0,0-5.81,5.94,19.78,19.78,0,0,0,0,17.62,14.58,14.58,0,0,0,5.81,5.94,17.14,17.14,0,0,0,8.56,2.11q8.17,0,13.91-6.91L759.75,362A28,28,0,0,1,749,370.24a35.76,35.76,0,0,1-14.58,2.87A35,35,0,0,1,717.73,369.19Z" transform="translate(-533.47 -131.5)"/><path class="cls-1" d="M789.93,350.51l-6.24,6.66v14.76H767.17v-59h16.52v24.53l22.85-24.53h18.37L800.8,339.05l25.38,32.88H806.79Z" transform="translate(-533.47 -131.5)"/><path class="cls-1" d="M587.5,398.62v12.54h25.15v12.45H587.5v19.53H571.39v-57h44.68v12.45Z" transform="translate(-533.47 -131.5)"/><path class="cls-1" d="M648.54,428h-8.79v15.14H623.64v-57h26a32.47,32.47,0,0,1,13.43,2.56,19.87,19.87,0,0,1,8.79,7.33,20.08,20.08,0,0,1,3.1,11.19A19.88,19.88,0,0,1,672.11,418a19.55,19.55,0,0,1-8.27,7.21l12.29,17.9H658.88Zm7.65-26.94q-2.52-2.19-7.48-2.19h-9v16.68h9q5,0,7.48-2.16a7.6,7.6,0,0,0,2.53-6.14A7.76,7.76,0,0,0,656.19,401.06Z" transform="translate(-533.47 -131.5)"/><path class="cls-1" d="M696.36,440.46a29.13,29.13,0,0,1,0-51.6,36.32,36.32,0,0,1,32.47,0,29.12,29.12,0,0,1,0,51.6,36.41,36.41,0,0,1-32.47,0Zm24-11.56a14.72,14.72,0,0,0,5.54-5.74,18.83,18.83,0,0,0,0-17,14.72,14.72,0,0,0-5.54-5.74,16.06,16.06,0,0,0-15.63,0,14.62,14.62,0,0,0-5.53,5.74,18.75,18.75,0,0,0,0,17,14.62,14.62,0,0,0,5.53,5.74,16.06,16.06,0,0,0,15.63,0Z" transform="translate(-533.47 -131.5)"/><path class="cls-1" d="M804.16,443.14,804,413l-14.65,24.58h-7.16l-14.57-23.77v29.38h-14.9v-57H766l20,32.88,19.53-32.88h13.27l.16,57Z" transform="translate(-533.47 -131.5)"/><path class="cls-1" d="M624.31,459.42v54.94H608.77V492.93H587.58v21.43H572V459.42h15.54v20.64h21.19V459.42Z" transform="translate(-533.47 -131.5)"/><path class="cls-1" d="M647.34,511.77a28.1,28.1,0,0,1,0-49.76,35.07,35.07,0,0,1,31.32,0,28.09,28.09,0,0,1,0,49.76,35.07,35.07,0,0,1-31.32,0Zm23.2-11.15a14,14,0,0,0,5.33-5.53,18.05,18.05,0,0,0,0-16.4,14,14,0,0,0-5.33-5.53,15.4,15.4,0,0,0-15.07,0,14.08,14.08,0,0,0-5.34,5.53,18.13,18.13,0,0,0,0,16.4,14.08,14.08,0,0,0,5.34,5.53,15.4,15.4,0,0,0,15.07,0Z" transform="translate(-533.47 -131.5)"/><path class="cls-1" d="M765.54,501.88a45.2,45.2,0,0,0-13.64-2.1h-.69l-.07-14.52-9.33,15.64a45,45,0,0,0-13.34,5.4l-12.42-20.25v28.33H701.69V459.45h12.79l19.31,31.71,18.84-31.71h12.79Z" transform="translate(-533.47 -131.5)"/><path class="cls-1" d="M820.67,502.38v12H785.2a45.06,45.06,0,0,0-8.64-7.3V459.45h43.09v12H792v9.26h24.4v11.61H792v10.05Z" transform="translate(-533.47 -131.5)"/><path class="cls-1" d="M550.13,536.59v0h0Z" transform="translate(-533.47 -131.5)"/><path class="cls-2" d="M752,557.43A12.46,12.46,0,0,0,764.44,545v-.17a12.46,12.46,0,0,0-24.9-.52h0c0,.23,0,.46,0,.69A12.46,12.46,0,0,0,752,557.43Z" transform="translate(-533.47 -131.5)"/><path class="cls-2" d="M861.16,545.26v-.13a12.45,12.45,0,0,0-24.86-1.07c0,.35,0,.71,0,1.07a12.46,12.46,0,0,0,24.91.13Z" transform="translate(-533.47 -131.5)"/><path class="cls-1" d="M871.4,569.59a33.27,33.27,0,0,0,10.77-24.54c0-.7,0-1.39-.06-2.09a33.42,33.42,0,0,0-25-30.25v-73.5h0V328l-.18,0,.13-38.59a8.57,8.57,0,0,0,0-.89c0-.14,0-.29-.06-.43s-.06-.3-.08-.44a8.72,8.72,0,0,0-2.26-4.16L708.5,137.36h-.16a17.72,17.72,0,0,0-13.43-5.86,18.23,18.23,0,0,0-11.3,3.83l-.44.43-90.45,90.45-13.4,13.4-44.51,44.52a8.68,8.68,0,0,0-1.34,4.52V536.73a16.68,16.68,0,0,0,16.66,16.49v0h.66v-.06H719.72a33.39,33.39,0,0,0,65.72-8.31,34.21,34.21,0,0,0-.21-3.81v0a33.39,33.39,0,0,0-65.51-4.47H550.13V292.11l.1-.11,24.63-24.65.18.11L695,147.54,840.31,292.89v.25h.13V439.21h0v73.5a33.41,33.41,0,0,0-25,30.14c-.05.73-.07,1.47-.07,2.2a33.29,33.29,0,0,0,10.64,24.44c.52-.44,1.06-.85,1.62-1.26a34.48,34.48,0,0,1,43.73,1.36ZM739.54,544.28h0a12.46,12.46,0,0,1,24.9.52V545a12.46,12.46,0,0,1-24.92,0C739.52,544.74,739.53,544.51,739.54,544.28Zm96.71.85c0-.36,0-.72,0-1.07a12.45,12.45,0,0,1,24.86,1.07v.13a12.46,12.46,0,0,1-24.91-.13Z" transform="translate(-533.47 -131.5)"/><path class="cls-1" d="M864.74,597.3a12.24,12.24,0,0,1,3,8.29,13.49,13.49,0,0,1-2.14,7.36,15.1,15.1,0,0,1-6.53,5.47,25.18,25.18,0,0,1-10.85,2.08,38.59,38.59,0,0,1-9.37-1.15,27.84,27.84,0,0,1-8-3.26l4.61-9.54a20.49,20.49,0,0,0,5.92,2.75,23.16,23.16,0,0,0,6.5,1,9.62,9.62,0,0,0,5.18-1.21,3.86,3.86,0,0,0,1.92-3.46q0-4.35-6.85-4.35h-5.31v-8l8-8.64H833.09v-9.79h32.38v7.93l-9.28,10A15,15,0,0,1,864.74,597.3Z" transform="translate(-533.47 -131.5)"/></svg>