<?xml version="1.0" standalone="no"?>
<!DOCTYPE svg PUBLIC "-//W3C//DTD SVG 20010904//EN"
 "http://www.w3.org/TR/2001/REC-SVG-20010904/DTD/svg10.dtd">
<svg version="1.0" xmlns="http://www.w3.org/2000/svg"
 width="3136.000000pt" height="3136.000000pt" viewBox="0 0 3136.000000 3136.000000"
 preserveAspectRatio="xMidYMid meet">
<metadata>
Created by potrace 1.11, written by Peter Selinger 2001-2013
</metadata>
<g transform="translate(0.000000,3136.000000) scale(0.100000,-0.100000)"
fill="#000000" stroke="none">
<path d="M1704 31239 c-2 -4 10 -5 26 -4 16 1 28 0 26 -4 -3 -4 -19 -8 -37 -9
-104 -8 8 -12 415 -14 370 -2 456 -1 456 10 0 7 -4 10 -10 7 -5 -3 -7 0 -5 7
4 9 -2 14 -15 15 -11 1 -20 -3 -20 -8 0 -6 6 -7 13 -3 7 4 8 3 4 -2 -10 -10
-187 -13 -187 -3 0 4 11 6 25 4 14 -1 25 2 25 7 0 5 -16 8 -35 6 -22 -1 -34
-7 -31 -13 2 -7 -2 -12 -9 -12 -7 0 -11 5 -9 12 3 6 -4 11 -15 11 -13 0 -17
-4 -11 -11 6 -7 2 -11 -9 -11 -10 0 -17 5 -14 11 2 7 -3 12 -12 12 -9 0 -14
-6 -11 -14 3 -7 1 -13 -4 -13 -6 0 -10 6 -10 14 0 11 -10 14 -35 13 -19 -1
-35 -5 -35 -9 0 -4 14 -6 30 -4 17 2 28 1 25 -3 -4 -3 -25 -7 -48 -7 -23 -1
-36 1 -29 3 19 7 14 19 -8 20 -11 1 -18 -2 -15 -7 3 -5 0 -12 -6 -16 -7 -4 -9
-3 -5 4 3 6 2 13 -4 17 -5 3 -10 0 -10 -8 0 -16 -93 -18 -107 -3 -4 5 -3 6 5
2 6 -4 12 -3 12 3 0 5 -9 9 -20 8 -11 -1 -19 -6 -16 -12 2 -7 -14 -11 -45 -11
-27 0 -49 3 -49 7 0 4 11 6 25 4 14 -1 25 2 25 7 0 5 -16 8 -35 6 -19 -1 -35
-7 -35 -13 0 -7 -19 -12 -50 -11 -32 0 -50 4 -50 12 0 12 -58 15 -66 3z"/>
<path d="M1780 31242 c0 -5 7 -9 15 -9 8 0 15 4 15 9 0 4 -7 8 -15 8 -8 0 -15
-4 -15 -8z"/>
<path d="M1820 31238 c0 -3 9 -6 20 -5 11 1 20 5 20 9 0 3 -9 6 -20 5 -11 -1
-20 -5 -20 -9z"/>
<path d="M1950 31240 c0 -5 5 -10 10 -10 6 0 10 5 10 10 0 6 -4 10 -10 10 -5
0 -10 -4 -10 -10z"/>
<path d="M2030 31240 c0 -5 5 -10 10 -10 6 0 10 5 10 10 0 6 -4 10 -10 10 -5
0 -10 -4 -10 -10z"/>
<path d="M2060 31242 c0 -4 9 -8 20 -8 11 0 20 4 20 8 0 4 -9 8 -20 8 -11 0
-20 -4 -20 -8z"/>
<path d="M2430 31240 c0 -5 5 -10 10 -10 6 0 10 5 10 10 0 6 -4 10 -10 10 -5
0 -10 -4 -10 -10z"/>
<path d="M2460 31242 c0 -4 9 -8 20 -8 11 0 20 4 20 8 0 4 -9 8 -20 8 -11 0
-20 -4 -20 -8z"/>
<path d="M2510 31240 c0 -5 5 -10 10 -10 6 0 10 5 10 10 0 6 -4 10 -10 10 -5
0 -10 -4 -10 -10z"/>
<path d="M2590 31239 c0 -4 14 -6 30 -5 17 0 30 4 30 9 0 4 -13 6 -30 5 -16
-1 -30 -5 -30 -9z"/>
<path d="M2666 31241 c9 -9 34 -9 34 -1 0 5 -9 8 -20 7 -10 -1 -17 -3 -14 -6z"/>
<path d="M2707 31237 c-3 -9 -20 -13 -51 -12 -66 3 -67 -12 -2 -17 48 -3 56 0
60 17 6 22 1 32 -7 12z"/>
<path d="M2725 31232 c-3 -8 -1 -20 6 -26 8 -8 10 -7 7 4 -1 8 2 16 7 17 6 1
9 -5 7 -14 -2 -9 1 -12 8 -8 6 4 9 14 6 22 -3 8 -1 11 4 8 6 -3 10 -14 10 -23
0 -14 2 -14 9 -3 14 22 3 36 -29 37 -18 1 -31 -4 -35 -14z"/>
<path d="M2806 31242 c-2 -4 0 -16 5 -27 4 -11 8 -15 8 -10 1 12 63 13 72 1 4
-4 6 2 6 15 0 21 -4 24 -43 26 -24 0 -46 -2 -48 -5z m68 -14 c-3 -4 -9 -8 -15
-8 -5 0 -9 4 -9 8 0 5 7 9 15 9 8 0 12 -4 9 -9z"/>
<path d="M2908 31238 c-9 -23 2 -35 27 -30 14 2 22 8 20 13 -3 4 -14 6 -25 4
-13 -3 -17 1 -13 11 3 8 3 14 0 14 -3 0 -7 -6 -9 -12z"/>
<path d="M2930 31238 c0 -5 4 -7 9 -3 5 3 16 -4 24 -15 14 -21 14 -21 14 2 0
17 -6 23 -23 24 -13 1 -24 -2 -24 -8z"/>
<path d="M2986 31235 c-2 -7 -1 -16 2 -21 10 -13 111 -11 116 2 3 7 -16 10
-55 9 -32 -1 -56 1 -54 5 2 4 20 6 40 5 19 -2 37 0 39 4 2 3 -16 6 -40 7 -24
0 -45 -4 -48 -11z"/>
<path d="M3090 31238 c0 -4 5 -7 12 -5 7 1 12 -3 13 -10 0 -6 4 -15 9 -20 5
-4 7 1 4 13 -3 13 0 21 7 21 7 0 11 -6 8 -13 -2 -6 1 -15 8 -20 9 -5 10 -2 6
9 -4 10 -2 16 5 14 6 -1 12 3 14 8 2 6 -16 10 -41 11 -25 1 -45 -3 -45 -8z"/>
<path d="M3182 31230 c-18 -30 -14 -36 8 -12 21 22 25 32 12 32 -4 0 -13 -9
-20 -20z"/>
<path d="M3212 31229 c-7 -12 -11 -24 -8 -27 3 -3 6 0 6 6 0 7 10 8 30 2 17
-5 30 -6 30 -2 0 11 94 8 102 -3 5 -6 8 -3 8 7 0 9 5 20 11 24 8 4 9 -1 4 -17
-5 -19 -4 -21 4 -9 9 12 11 13 11 1 0 -8 3 -12 6 -8 3 3 3 14 0 25 -5 14 -15
19 -35 18 -16 0 -27 -4 -25 -8 3 -5 2 -8 -3 -9 -4 0 -18 -2 -31 -3 -13 -2 -26
2 -29 7 -3 6 -1 7 5 3 6 -3 13 -2 16 3 4 5 -2 8 -11 6 -10 -1 -17 -9 -15 -16
1 -8 -5 -5 -14 6 -11 13 -15 14 -11 5 3 -12 -2 -16 -18 -16 -13 0 -21 4 -19 8
3 5 10 6 15 3 5 -4 9 -1 9 4 0 19 -25 12 -38 -10z"/>
<path d="M3420 31239 c0 -8 28 -39 36 -39 2 0 4 7 4 16 0 8 -4 13 -9 9 -5 -3
-12 -2 -15 3 -3 5 22 8 55 7 33 -1 62 1 64 5 2 3 -28 6 -66 6 -38 0 -69 -3
-69 -7z"/>
<path d="M3570 31238 c0 -3 9 -6 20 -5 11 1 20 5 20 9 0 3 -9 6 -20 5 -11 -1
-20 -5 -20 -9z"/>
<path d="M3617 31237 c-4 -10 -25 -13 -76 -12 -98 2 -90 -13 9 -17 44 -2 80 0
80 3 0 4 16 3 35 -1 20 -4 35 -4 35 1 0 5 -4 10 -10 10 -5 1 -14 2 -19 3 -23
3 -18 13 6 11 16 0 29 -9 34 -20 4 -11 8 -15 8 -9 1 8 12 9 36 4 26 -6 35 -5
35 5 0 8 -11 12 -29 10 -16 -1 -34 1 -40 5 -7 3 29 6 79 5 49 -1 90 1 90 5 0
3 -55 5 -122 5 -102 -1 -123 -4 -120 -16 2 -10 -2 -9 -12 4 -10 14 -15 15 -19
4z"/>
<path d="M3906 31239 c2 -4 13 -6 24 -4 12 2 19 1 16 -3 -2 -4 -36 -7 -75 -7
-39 0 -71 -3 -71 -8 0 -5 38 -7 85 -5 47 2 87 1 88 -2 2 -3 2 1 1 8 -4 17 7
15 35 -5 23 -16 24 -16 19 3 -4 17 0 19 48 19 29 0 55 -2 58 -5 3 -4 -17 -6
-44 -5 -59 1 -67 -11 -11 -17 22 -2 37 0 35 4 -3 5 0 8 5 8 6 0 11 -5 11 -11
0 -5 5 -7 11 -4 6 4 8 12 6 19 -3 8 13 11 53 11 40 0 56 -3 53 -11 -2 -7 0
-15 5 -18 5 -3 12 4 14 17 4 22 4 22 -146 22 -124 1 -153 -2 -164 -15 -10 -12
-12 -12 -10 -1 2 9 -7 15 -24 16 -15 1 -25 -2 -22 -6z m109 -9 c3 -6 -1 -7 -9
-4 -18 7 -21 14 -7 14 6 0 13 -4 16 -10z"/>
<path d="M4286 31234 c-9 -25 -8 -27 19 -22 13 3 26 1 29 -4 2 -5 3 -3 2 4 -2
7 -13 12 -24 11 -15 -2 -20 2 -16 12 4 8 4 15 1 15 -3 0 -8 -7 -11 -16z"/>
<path d="M4320 31240 c18 -12 30 -13 30 -2 0 4 -10 9 -22 9 -18 2 -20 0 -8 -7z"/>
<path d="M4386 31238 c3 -5 10 -5 16 -2 7 4 8 2 4 -5 -4 -6 -11 -9 -16 -6 -11
7 -40 -5 -40 -15 0 -5 13 -5 29 0 17 4 32 5 34 2 2 -4 2 -1 0 6 -1 8 3 12 9 9
7 -2 12 -8 11 -13 -1 -5 13 -9 32 -9 25 0 31 4 27 15 -5 13 -3 13 11 1 26 -21
285 -16 309 6 20 18 25 4 6 -16 -11 -11 -9 -11 10 -2 17 9 22 9 22 0 0 -7 3
-9 6 -6 4 4 1 13 -6 22 -11 13 -10 14 4 9 9 -3 16 -10 16 -15 0 -13 44 -11 59
4 11 10 13 9 9 -3 -4 -12 3 -15 31 -15 20 0 39 5 44 10 4 6 10 5 16 -4 6 -9
10 -10 16 -2 5 9 10 9 21 0 11 -9 14 -9 14 1 0 10 3 10 15 0 12 -10 15 -10 15
1 0 11 2 11 10 -1 8 -12 10 -12 10 5 1 19 1 19 14 2 12 -15 16 -16 23 -4 4 7
16 18 26 24 16 8 14 10 -13 10 -17 0 -26 -4 -19 -7 8 -6 8 -9 0 -14 -6 -4 -14
0 -17 9 -6 13 -8 14 -15 3 -7 -11 -11 -10 -20 2 -9 13 -10 13 -6 -1 4 -12 -1
-16 -21 -16 -24 0 -24 1 -8 13 17 12 17 13 -2 11 -11 0 -18 -5 -15 -10 7 -12
-30 -4 -39 8 -4 6 -8 2 -8 -7 0 -11 -8 -18 -20 -18 -14 0 -18 5 -13 18 5 14 3
13 -11 -3 -10 -12 -15 -14 -14 -6 2 10 -8 15 -34 16 -20 1 -35 -2 -32 -7 3 -5
9 -6 14 -3 5 3 11 2 14 -3 2 -4 -4 -9 -15 -9 -11 -1 -22 4 -25 11 -6 15 -90
15 -87 -1 2 -7 -35 -10 -117 -10 -71 1 -118 6 -117 11 1 6 -16 10 -38 10 -25
0 -39 -4 -38 -12 2 -6 -4 -9 -12 -6 -8 4 -12 11 -8 18 4 6 -1 5 -10 -3 -9 -7
-17 -9 -17 -4 0 5 -11 9 -24 9 -14 0 -22 -4 -20 -8z m152 -15 c-8 -10 -14 -10
-24 -2 -18 15 -18 15 11 15 19 0 22 -3 13 -13z"/>
<path d="M4590 31240 c0 -4 7 -7 15 -6 23 3 26 12 5 13 -11 1 -20 -2 -20 -7z"/>
<path d="M4675 31242 c7 -8 95 -11 95 -4 0 4 -22 7 -50 8 -27 0 -48 -1 -45 -4z"/>
<path d="M5227 31231 c2 -8 -2 -11 -10 -8 -19 7 -43 -8 -28 -17 6 -4 11 -2 11
5 0 8 4 8 15 -1 8 -7 15 -9 15 -4 0 10 214 9 230 -1 5 -3 10 -1 10 6 0 8 5 7
17 -2 11 -10 14 -10 9 -1 -9 15 6 16 22 0 7 -7 12 -8 13 -2 0 5 2 16 4 25 1 9
-3 16 -11 16 -10 0 -11 -4 -3 -14 8 -9 8 -13 1 -13 -6 0 -16 8 -21 18 -10 16
-10 15 -11 -3 l-1 -20 -16 20 c-11 14 -14 15 -10 4 4 -12 -1 -16 -19 -16 -13
0 -27 4 -31 10 -3 5 -2 7 3 4 6 -3 16 -1 24 4 11 7 8 8 -10 5 -14 -2 -24 -9
-22 -16 1 -6 -3 -10 -10 -7 -7 2 -12 9 -11 14 1 6 -12 9 -30 8 -18 -1 -31 -6
-30 -12 1 -5 -11 -10 -27 -10 -22 0 -27 4 -20 12 7 8 5 12 -5 12 -7 0 -13 -5
-12 -10 1 -5 -4 -12 -11 -14 -8 -3 -10 2 -6 14 4 13 3 15 -4 4 -5 -7 -12 -9
-14 -5 -3 5 -3 3 -1 -5z m148 -2 c4 -5 -3 -9 -14 -9 -26 0 -35 15 -11 17 11 1
22 -2 25 -8z"/>
<path d="M5550 31239 c0 -5 5 -7 10 -4 6 3 10 8 10 11 0 2 -4 4 -10 4 -5 0
-10 -5 -10 -11z"/>
<path d="M5563 31225 c-20 -19 -20 -21 -3 -21 10 0 16 4 14 8 -7 11 4 10 28
-3 15 -8 19 -8 14 0 -10 15 7 14 22 -1 7 -7 12 -9 12 -5 0 4 -9 16 -20 27 -16
16 -20 17 -20 5 0 -18 -17 -20 -22 -2 -2 8 -10 6 -25 -8z"/>
<path d="M5636 31238 c3 -5 10 -6 15 -3 13 9 11 12 -6 12 -8 0 -12 -4 -9 -9z"/>
<path d="M5665 31229 c-4 -11 -4 -23 -1 -26 3 -4 6 2 6 13 1 19 1 19 15 0 13
-17 15 -17 21 -3 3 9 4 22 1 29 -3 8 -6 6 -6 -5 -1 -10 -6 -15 -11 -12 -6 4
-8 11 -5 16 4 5 2 9 -4 9 -5 0 -13 -9 -16 -21z"/>
<path d="M5727 31231 c-3 -11 0 -24 5 -28 7 -3 8 -1 4 6 -6 8 -1 10 17 6 18
-5 26 -2 31 11 4 9 4 19 1 22 -3 3 -5 0 -5 -8 0 -10 -4 -10 -17 1 -16 13 -17
12 -4 -3 8 -11 9 -18 3 -18 -6 0 -15 7 -20 16 -8 14 -10 13 -15 -5z"/>
<path d="M5813 31238 c4 -12 1 -18 -8 -18 -8 0 -15 -4 -15 -8 0 -12 64 -1 72
12 14 21 8 30 -7 10 -15 -19 -15 -19 -31 1 -14 16 -16 17 -11 3z"/>
<path d="M5882 31229 c-17 -27 -15 -36 4 -13 10 12 14 13 11 4 -3 -10 3 -15
18 -15 13 0 21 3 19 6 -1 3 10 6 26 6 16 0 27 -4 24 -8 -2 -4 9 -4 25 1 16 4
31 6 34 4 9 -9 73 -10 85 -1 8 6 12 5 12 -3 0 -8 3 -11 6 -7 13 13 -22 42 -53
43 -17 0 -29 -4 -27 -8 3 -5 11 -8 17 -7 27 3 48 -2 43 -10 -9 -13 -56 -4 -79
16 -11 10 -17 12 -13 6 4 -7 3 -13 -3 -13 -5 0 -11 3 -14 8 -2 4 -2 1 -1 -5 5
-18 -16 -16 -38 4 -18 16 -18 16 -12 0 3 -10 1 -17 -5 -17 -6 0 -11 8 -11 17
0 15 -2 14 -15 -3 -14 -18 -16 -18 -28 -2 -12 15 -14 15 -25 -3z"/>
<path d="M6151 31244 c-1 -6 8 -19 19 -29 13 -12 20 -14 20 -5 0 10 4 9 17 -1
12 -10 15 -11 9 -1 -4 7 -3 19 3 26 8 9 7 13 -4 13 -8 0 -12 -4 -10 -8 3 -4
-2 -10 -11 -13 -23 -9 -24 -8 -18 12 5 13 4 14 -4 3 -8 -11 -10 -11 -15 0 -3
8 -6 9 -6 3z"/>
<path d="M6289 31243 c-1 -5 -1 -11 0 -15 0 -4 -8 -6 -19 -5 -11 1 -20 6 -20
11 0 6 -5 5 -11 -1 -14 -14 -2 -36 14 -26 7 4 19 6 29 5 9 -2 19 2 23 8 3 5
11 10 17 10 6 0 5 -7 -3 -17 -13 -15 -12 -15 5 -6 10 6 27 8 37 6 11 -3 19 0
19 6 0 6 -7 8 -17 4 -10 -4 -14 -2 -9 5 3 6 1 14 -5 18 -7 4 -9 3 -6 -3 4 -5
-6 -10 -23 -10 -16 0 -27 4 -24 9 3 4 3 8 0 8 -3 0 -7 -3 -7 -7z"/>
<path d="M6418 31239 c6 -9 9 -19 5 -22 -3 -4 -12 1 -19 11 -12 16 -13 15 -11
-4 1 -19 13 -23 37 -14 15 6 57 4 67 -3 6 -4 14 -3 19 4 5 8 3 9 -6 4 -8 -5
-11 -3 -8 6 3 8 12 13 21 11 8 -1 18 1 20 5 3 5 -8 8 -23 8 -16 1 -27 -2 -24
-6 9 -15 -31 -14 -44 1 -10 13 -11 12 -5 -5 l6 -20 -24 20 c-13 11 -18 13 -11
4z"/>
<path d="M6668 31239 c17 -18 15 -34 -3 -19 -10 9 -15 9 -15 1 0 -6 3 -11 8
-12 4 0 15 -2 24 -4 14 -3 16 0 8 15 -6 11 -16 22 -23 26 -9 5 -9 4 1 -7z"/>
<path d="M6705 31234 c11 -8 19 -17 18 -19 -7 -13 -2 -16 10 -7 6 6 16 10 22
10 5 0 11 6 13 14 2 8 0 9 -5 3 -11 -13 -33 -17 -33 -6 0 5 -10 11 -22 14 -23
6 -23 6 -3 -9z"/>
<path d="M6835 31240 c4 -11 -2 -15 -21 -17 -14 0 -31 -6 -37 -12 -8 -8 -2 -8
21 -2 18 5 32 7 32 3 0 -3 5 -1 12 6 9 9 9 15 -1 25 -10 10 -11 9 -6 -3z"/>
<path d="M6915 31226 c10 -14 19 -26 22 -26 7 0 -17 39 -28 46 -6 3 -3 -5 6
-20z"/>
<path d="M6937 31239 c7 -7 15 -10 18 -7 3 3 -2 9 -12 12 -14 6 -15 5 -6 -5z"/>
<path d="M7034 31234 c4 -12 2 -15 -9 -10 -8 3 -15 2 -15 -3 0 -5 11 -11 25
-13 20 -4 23 -2 15 12 -5 10 -6 20 -3 24 3 3 1 6 -6 6 -8 0 -11 -6 -7 -16z"/>
<path d="M7094 31238 c-4 -7 -3 -10 1 -5 5 4 15 1 24 -6 21 -18 47 -27 56 -19
3 3 22 5 42 3 34 -3 53 9 53 34 -1 6 -5 2 -11 -8 -8 -13 -20 -18 -44 -15 -19
1 -37 -1 -40 -4 -9 -8 -35 1 -57 19 -13 12 -17 12 -24 1z"/>
<path d="M7155 31240 c-3 -5 -1 -10 4 -10 6 0 11 5 11 10 0 6 -2 10 -4 10 -3
0 -8 -4 -11 -10z"/>
<path d="M7305 31240 c-3 -5 0 -7 8 -4 8 3 18 1 22 -5 3 -7 -2 -11 -14 -11
-11 0 -23 -4 -26 -10 -3 -5 1 -8 9 -5 9 3 23 7 32 10 13 4 14 8 4 20 -14 17
-26 19 -35 5z"/>
<path d="M7390 31240 c0 -5 5 -10 11 -10 5 0 7 5 4 10 -3 6 -8 10 -11 10 -2 0
-4 -4 -4 -10z"/>
<path d="M7467 31239 c7 -7 15 -10 18 -7 3 3 -2 9 -12 12 -14 6 -15 5 -6 -5z"/>
<path d="M7498 31232 c-4 -13 -4 -21 -1 -18 3 3 14 1 24 -5 15 -7 17 -6 13 6
-3 8 -10 13 -14 10 -5 -3 -10 3 -12 12 -3 14 -5 13 -10 -5z"/>
<path d="M7633 31243 c8 -13 -17 -36 -27 -26 -4 4 -21 8 -37 9 -16 1 -27 -2
-23 -5 3 -3 15 -6 27 -6 12 -1 27 -4 33 -8 6 -3 19 2 28 12 13 14 14 21 5 27
-7 4 -10 3 -6 -3z"/>
<path d="M7694 31236 c5 -13 2 -17 -9 -12 -8 3 -15 1 -15 -4 0 -12 27 -13 34
-2 2 4 0 14 -6 22 -8 12 -9 11 -4 -4z"/>
<path d="M7774 31236 c5 -14 3 -17 -11 -12 -15 6 -16 5 -5 -5 17 -18 35 1 21
21 -9 12 -10 12 -5 -4z"/>
<path d="M7833 31235 c0 -7 7 -11 16 -8 11 3 10 0 -3 -11 -11 -9 -15 -16 -9
-16 7 0 14 4 18 10 3 5 12 7 20 3 8 -3 15 0 15 6 0 6 -3 10 -7 9 -5 -1 -17 3
-29 9 -16 10 -21 9 -21 -2z"/>
<path d="M8170 31240 c0 -5 5 -10 11 -10 5 0 7 5 4 10 -3 6 -8 10 -11 10 -2 0
-4 -4 -4 -10z"/>
<path d="M8214 31242 c3 -6 -2 -15 -11 -21 -16 -9 -16 -10 -2 -11 20 0 33 27
17 36 -6 4 -8 3 -4 -4z"/>
<path d="M8250 31240 c0 -5 5 -10 11 -10 5 0 7 5 4 10 -3 6 -8 10 -11 10 -2 0
-4 -4 -4 -10z"/>
<path d="M8376 31231 c-10 -11 -25 -17 -34 -14 -15 4 -15 3 -2 -6 9 -6 18 -7
24 -1 6 6 14 6 22 -1 8 -7 14 -7 19 1 4 6 3 10 -2 9 -20 -3 -25 2 -13 16 18
22 6 18 -14 -4z"/>
<path d="M8416 31242 c-3 -5 1 -9 9 -9 8 0 12 4 9 9 -3 4 -7 8 -9 8 -2 0 -6
-4 -9 -8z"/>
<path d="M8625 31240 c-3 -6 1 -7 9 -4 18 7 21 14 7 14 -6 0 -13 -4 -16 -10z"/>
<path d="M8910 31246 c0 -2 7 -7 16 -10 8 -3 12 -2 9 4 -6 10 -25 14 -25 6z"/>
<path d="M9235 31240 c3 -5 8 -10 11 -10 2 0 4 5 4 10 0 6 -5 10 -11 10 -5 0
-7 -4 -4 -10z"/>
<path d="M9385 31240 c-3 -6 1 -7 9 -4 18 7 21 14 7 14 -6 0 -13 -4 -16 -10z"/>
<path d="M9559 31248 c-6 -20 -6 -39 0 -42 4 -3 7 6 7 20 0 20 -4 32 -7 22z"/>
<path d="M13778 31243 c-23 -3 -38 -9 -38 -18 0 -10 -24 -13 -102 -14 -151 -2
-187 -5 -183 -12 3 -3 -19 -9 -48 -12 -54 -7 -170 -24 -222 -33 -16 -3 -93
-16 -170 -29 -167 -29 -154 -27 -380 -71 -99 -20 -250 -51 -335 -71 -85 -19
-162 -36 -170 -38 -55 -11 -302 -74 -440 -111 -91 -25 -174 -47 -185 -49 -11
-3 -49 -14 -85 -24 -36 -11 -99 -29 -140 -41 -229 -66 -970 -314 -1075 -360
-11 -5 -94 -38 -185 -73 -644 -251 -1340 -581 -1957 -929 -18 -10 -50 -27 -70
-39 -321 -179 -849 -514 -1177 -744 -109 -77 -208 -147 -220 -155 -11 -8 -33
-23 -47 -35 -14 -11 -36 -27 -49 -35 -111 -74 -725 -556 -834 -655 -6 -5 -40
-35 -76 -65 -72 -61 -117 -100 -134 -115 -6 -5 -49 -44 -96 -85 -472 -417
-979 -927 -1390 -1400 -84 -96 -162 -186 -174 -200 -47 -53 -257 -312 -370
-455 -64 -82 -123 -157 -129 -165 -30 -38 -271 -366 -339 -460 -217 -304 -581
-870 -740 -1150 -157 -275 -237 -419 -275 -490 -90 -168 -301 -588 -356 -705
-30 -66 -74 -160 -97 -210 -23 -49 -84 -189 -136 -310 -52 -121 -99 -229 -104
-240 -18 -41 -124 -316 -200 -520 -193 -521 -347 -1017 -495 -1595 -23 -92
-80 -335 -105 -450 -17 -80 -35 -163 -40 -185 -5 -22 -12 -53 -15 -70 -3 -16
-7 -39 -9 -50 -15 -72 -47 -236 -52 -269 -3 -21 -8 -48 -10 -60 -28 -132 -122
-777 -139 -942 -3 -33 -7 -71 -10 -85 -2 -13 -6 -55 -10 -94 -3 -38 -8 -88
-11 -110 -6 -52 -12 -122 -19 -215 -7 -102 -15 -195 -21 -255 -5 -55 -11 -181
-21 -435 -3 -91 -10 -168 -16 -171 -5 -4 -3 -9 4 -12 12 -5 12 -7 0 -15 -10
-7 -10 -11 -1 -14 10 -3 10 -9 0 -27 -6 -13 -8 -21 -3 -18 10 6 10 -33 0 -49
-3 -5 -2 -16 2 -23 5 -7 6 -27 4 -44 -8 -69 -9 -128 -2 -133 5 -2 4 -15 0 -27
-5 -12 -5 -34 -1 -49 5 -14 6 -29 3 -32 -9 -8 -9 -97 -1 -102 5 -3 5 -10 2
-16 -8 -13 -7 -165 1 -179 4 -5 1 -9 -5 -9 -6 0 -8 -5 -3 -12 11 -19 12 -37 2
-44 -5 -3 -6 -11 -2 -17 11 -17 11 -77 1 -83 -5 -3 -5 -11 1 -17 12 -15 18
-247 7 -266 -6 -10 -5 -12 2 -7 9 5 12 -12 13 -61 1 -37 2 -86 4 -108 8 -137
16 -256 20 -295 2 -25 7 -81 10 -125 3 -44 8 -96 10 -115 2 -19 7 -69 10 -110
4 -41 9 -88 11 -105 1 -16 6 -55 9 -85 3 -30 10 -89 15 -130 5 -41 12 -97 15
-125 3 -27 8 -66 11 -85 3 -19 9 -66 14 -105 16 -116 49 -333 71 -455 11 -63
22 -131 25 -150 5 -31 100 -513 109 -550 2 -8 10 -46 19 -85 8 -38 27 -119 41
-180 15 -60 29 -120 31 -133 16 -79 146 -560 201 -742 133 -442 176 -569 359
-1070 32 -88 206 -523 233 -583 10 -23 31 -71 46 -107 30 -72 141 -318 205
-456 53 -113 300 -606 330 -659 13 -22 40 -71 60 -110 306 -581 753 -1282
1209 -1900 69 -93 133 -178 141 -188 8 -10 22 -27 30 -37 8 -10 40 -51 70 -90
30 -40 81 -105 113 -144 32 -39 64 -78 70 -86 25 -32 203 -246 228 -275 15
-16 76 -87 137 -157 60 -70 130 -148 153 -174 24 -26 69 -75 99 -108 122 -135
217 -233 470 -486 288 -289 511 -499 728 -689 11 -9 47 -41 82 -71 66 -58 87
-76 117 -100 10 -8 59 -49 108 -91 50 -42 153 -126 230 -188 77 -62 149 -120
160 -129 57 -48 517 -389 625 -464 241 -167 286 -198 474 -320 206 -134 259
-167 506 -316 539 -324 1083 -605 1740 -900 266 -119 748 -309 1085 -427 83
-29 157 -55 165 -58 72 -27 515 -164 715 -222 88 -25 269 -75 290 -80 11 -3
65 -16 120 -30 55 -14 107 -28 115 -30 55 -14 420 -98 440 -101 14 -3 32 -7
40 -9 8 -2 30 -7 47 -10 18 -3 61 -12 95 -20 35 -8 76 -16 92 -19 16 -3 52
-10 80 -15 28 -6 65 -13 81 -16 17 -3 104 -18 195 -34 91 -16 185 -32 210 -36
76 -11 117 -17 260 -40 14 -2 50 -7 80 -10 30 -3 62 -8 70 -10 8 -2 44 -7 80
-10 36 -4 72 -8 80 -10 8 -2 44 -6 80 -10 36 -3 76 -8 90 -10 14 -2 54 -6 90
-10 36 -4 76 -8 90 -10 14 -2 65 -7 114 -10 49 -4 97 -8 107 -10 77 -15 377
-19 1329 -20 945 0 1178 4 1345 19 17 2 66 7 110 11 44 4 94 9 110 10 17 2 55
6 85 9 30 4 75 9 100 11 25 3 56 7 70 10 14 2 56 7 93 10 37 4 76 8 85 10 9 1
40 6 67 9 28 4 61 8 75 11 14 2 48 7 75 10 28 3 77 10 110 15 33 5 78 12 100
15 41 6 70 11 115 19 21 4 128 22 245 42 17 3 48 9 70 14 22 5 56 11 75 14 35
6 63 11 110 21 33 7 68 14 105 21 17 3 50 10 75 15 25 6 56 13 70 15 30 5 144
31 345 80 83 19 157 37 165 39 66 14 495 130 575 155 60 19 240 74 250 76 97
21 937 315 960 336 5 4 16 8 25 8 8 0 26 6 40 13 14 7 48 21 75 31 28 10 64
24 80 31 17 7 91 38 165 68 124 51 408 175 555 242 97 45 714 351 790 393 39
21 106 58 150 82 379 206 953 556 1275 778 41 29 82 56 90 62 147 96 778 562
800 590 3 3 23 19 45 35 22 17 42 32 45 35 3 3 50 41 105 85 54 44 118 96 140
115 23 19 61 51 86 71 24 21 56 48 70 60 15 13 55 49 90 79 307 266 450 401
814 765 349 349 450 456 696 736 134 152 187 214 211 245 12 16 25 31 28 34
12 10 236 285 313 385 43 55 85 109 94 120 25 30 258 344 348 470 94 131 417
612 497 740 78 126 218 354 238 390 10 17 34 59 55 95 21 36 49 85 63 110 14
25 53 95 87 155 121 214 381 722 472 920 23 50 58 126 78 170 136 293 331 763
421 1015 19 52 37 102 41 110 3 8 7 17 8 20 1 3 4 12 8 20 38 94 192 560 271
820 72 238 223 796 242 895 9 46 12 62 22 100 6 22 18 74 27 115 9 41 18 82
20 90 4 18 72 354 79 390 2 14 11 63 20 110 8 47 18 101 21 120 3 19 10 58 15
85 5 28 12 66 15 85 3 19 7 46 10 60 2 14 7 43 10 65 3 23 7 50 9 61 2 12 7
45 11 75 3 30 8 65 10 79 12 65 39 277 50 385 3 33 8 71 10 85 2 14 7 57 10
95 4 39 8 86 10 105 6 48 13 120 20 210 3 41 8 93 10 115 2 22 7 92 10 155 4
63 8 131 10 150 20 213 28 1322 12 1610 -4 74 -9 170 -12 213 -5 100 -16 262
-20 307 -2 19 -7 76 -10 125 -3 50 -8 104 -10 120 -2 17 -6 62 -10 100 -3 39
-8 86 -10 105 -11 89 -15 119 -20 170 -3 30 -7 71 -10 90 -2 19 -7 58 -10 85
-4 28 -8 57 -10 65 -2 8 -6 40 -10 71 -3 31 -7 65 -9 75 -2 11 -7 42 -10 69
-4 28 -10 66 -12 85 -3 19 -16 103 -30 185 -14 83 -27 164 -30 180 -3 17 -13
75 -24 130 -10 55 -22 116 -25 135 -3 19 -19 100 -36 180 -17 80 -32 156 -35
170 -3 14 -7 33 -10 42 -3 10 -7 28 -10 40 -8 44 -12 64 -43 193 -17 72 -51
209 -76 305 -25 96 -48 184 -50 195 -22 95 -182 623 -260 860 -83 246 -235
664 -270 742 -8 17 -15 35 -15 40 -1 4 -9 26 -20 48 -11 22 -19 44 -20 48 0 9
-166 405 -208 497 -16 36 -60 133 -98 215 -124 274 -394 805 -546 1075 -39 69
-82 145 -96 170 -117 209 -559 919 -592 950 -3 3 -31 43 -62 90 -31 47 -76
112 -100 146 -24 34 -58 83 -77 110 -272 389 -818 1067 -1137 1414 -18 19 -45
49 -60 65 -327 363 -916 939 -1258 1230 -33 28 -66 57 -75 66 -9 8 -50 44 -91
78 -41 35 -86 73 -100 84 -14 12 -77 64 -140 115 -63 52 -124 102 -135 111
-96 80 -464 357 -660 497 -212 152 -244 174 -254 174 -5 0 -11 4 -13 9 -9 24
-636 422 -983 624 -377 220 -941 512 -1305 677 -63 28 -133 60 -155 69 -22 10
-62 29 -90 41 -432 196 -1130 455 -1685 625 -175 54 -648 187 -710 200 -8 2
-73 18 -145 35 -71 18 -137 33 -145 35 -8 2 -67 16 -130 30 -122 28 -435 94
-485 101 -16 3 -61 11 -100 19 -38 8 -90 17 -115 20 -24 4 -47 8 -50 10 -3 1
-25 6 -50 9 -25 3 -55 8 -66 10 -21 4 -59 10 -126 21 -169 26 -216 34 -238 40
-14 3 -76 6 -137 6 -73 0 -117 4 -126 12 -7 7 -19 14 -27 17 -18 6 -3778 9
-3832 3z"/>
<path d="M10219 31238 c-5 -18 -6 -38 -1 -34 7 8 12 36 6 36 -2 0 -4 -1 -5 -2z"/>
<path d="M4160 31219 c0 -4 18 -9 40 -11 22 -2 40 0 40 4 0 9 0 9 -47 12 -18
1 -33 -1 -33 -5z"/>
<path d="M6538 31219 c-7 -4 -6 -9 1 -13 6 -4 11 -3 11 1 0 10 63 8 82 -2 11
-7 11 -5 0 6 -13 14 -75 19 -94 8z"/>
<path d="M6890 31221 c0 -5 5 -13 10 -16 6 -3 10 -2 10 4 0 5 -4 13 -10 16 -5
3 -10 2 -10 -4z"/>
<path d="M7359 31212 c-13 -15 -12 -16 3 -4 13 10 17 10 21 0 4 -9 6 -9 6 -1
2 20 -16 24 -30 5z"/>
<path d="M7414 31218 c-3 -5 -3 -12 0 -15 3 -4 6 -1 6 5 0 7 10 8 32 1 24 -6
29 -6 20 3 -14 14 -51 18 -58 6z"/>
<path d="M7903 31213 c0 -9 4 -10 10 -4 7 7 15 7 23 0 8 -7 14 -7 19 1 5 8 11
8 21 -1 10 -8 14 -8 14 0 0 12 0 12 -51 15 -24 2 -36 -2 -36 -11z"/>
<path d="M8030 31219 c0 -5 5 -9 10 -9 6 0 12 0 15 0 14 0 8 13 -7 16 -10 1
-18 -2 -18 -7z"/>
<path d="M8084 31219 c-8 -14 14 -19 25 -6 8 10 7 14 -5 14 -8 0 -17 -4 -20
-8z"/>
<path d="M8281 31220 c-9 -5 -4 -7 13 -7 29 0 32 2 13 10 -8 3 -20 2 -26 -3z"/>
<path d="M8444 31219 c-8 -14 14 -19 25 -6 8 10 7 14 -5 14 -8 0 -17 -4 -20
-8z"/>
<path d="M8521 31221 c-8 -5 -9 -11 -3 -15 5 -3 12 1 16 9 6 17 6 18 -13 6z"/>
<path d="M8685 31223 c-31 -7 -40 -21 -11 -16 15 3 29 9 32 14 3 5 4 8 2 8 -2
-1 -12 -3 -23 -6z"/>
<path d="M8717 31210 c-9 -12 -8 -13 2 -3 8 7 23 8 40 3 19 -5 28 -4 28 4 0
16 -57 13 -70 -4z"/>
<path d="M8801 31223 c-1 -17 16 -25 25 -12 4 7 3 9 -4 5 -5 -3 -13 0 -15 6
-4 9 -6 10 -6 1z"/>
<path d="M8850 31220 c-13 -8 -12 -10 3 -10 9 0 17 5 17 10 0 12 -1 12 -20 0z"/>
<path d="M8885 31219 c-4 -6 -5 -12 -2 -15 2 -3 7 2 10 11 7 17 1 20 -8 4z"/>
<path d="M8996 31222 c-3 -4 4 -9 15 -9 23 -2 25 3 4 10 -8 4 -16 3 -19 -1z"/>
<path d="M9041 31223 c-2 -20 16 -24 30 -5 13 15 12 16 -3 4 -13 -10 -17 -10
-21 0 -4 9 -6 9 -6 1z"/>
<path d="M9087 31211 c-10 -14 -10 -14 4 -4 9 7 18 10 21 7 3 -3 8 -1 12 4 9
16 -24 9 -37 -7z"/>
<path d="M9166 31221 c-3 -4 6 -8 20 -9 13 -1 24 0 24 2 0 7 -40 14 -44 7z"/>
<path d="M9356 31222 c-3 -4 4 -9 15 -9 23 -2 25 3 4 10 -8 4 -16 3 -19 -1z"/>
<path d="M9464 31219 c-4 -7 -3 -9 4 -5 5 3 13 0 15 -6 4 -9 6 -10 6 -1 1 17
-16 25 -25 12z"/>
<path d="M9590 31219 c0 -5 5 -7 10 -4 6 3 10 8 10 11 0 2 -4 4 -10 4 -5 0
-10 -5 -10 -11z"/>
<path d="M9616 31213 c-6 -14 -5 -15 5 -6 7 7 10 15 7 18 -3 3 -9 -2 -12 -12z"/>
<path d="M9653 31215 c0 -8 4 -12 9 -9 4 3 8 9 8 15 0 5 -4 9 -8 9 -5 0 -9 -7
-9 -15z"/>
<path d="M9910 31221 c0 -6 4 -12 8 -15 5 -3 9 1 9 9 0 8 -4 15 -9 15 -4 0 -8
-4 -8 -9z"/>
<path d="M10004 31219 c-4 -7 -3 -9 4 -5 5 3 13 0 15 -6 4 -9 6 -10 6 -1 1 17
-16 25 -25 12z"/>
<path d="M10133 31215 c0 -8 4 -12 9 -9 4 3 8 9 8 15 0 5 -4 9 -8 9 -5 0 -9
-7 -9 -15z"/>
<path d="M10670 31220 c-9 -6 -10 -10 -3 -10 6 0 15 5 18 10 8 12 4 12 -15 0z"/>
<path d="M10794 31222 c3 -5 0 -13 -6 -15 -9 -4 -10 -6 -1 -6 17 -1 25 16 12
25 -7 4 -9 3 -5 -4z"/>
<path d="M11230 31221 c0 -6 4 -13 10 -16 6 -3 7 1 4 9 -7 18 -14 21 -14 7z"/>
<path d="M11453 31215 c0 -8 4 -12 9 -9 5 3 6 10 3 15 -9 13 -12 11 -12 -6z"/>
<path d="M11506 31222 c-3 -4 4 -9 15 -9 23 -2 25 3 4 10 -8 4 -16 3 -19 -1z"/>
<path d="M6855 31210 c-3 -6 1 -7 9 -4 18 7 21 14 7 14 -6 0 -13 -4 -16 -10z"/>
<path d="M6950 31216 c0 -2 11 -6 25 -8 13 -3 22 -1 19 3 -5 9 -44 13 -44 5z"/>
<path d="M7070 31216 c0 -2 11 -6 25 -8 13 -3 22 -1 19 3 -5 9 -44 13 -44 5z"/>
<path d="M7716 31212 c-2 -4 4 -8 14 -8 10 0 16 4 14 8 -3 4 -9 8 -14 8 -5 0
-11 -4 -14 -8z"/>
<path d="M7795 31210 c-3 -6 1 -7 9 -4 18 7 21 14 7 14 -6 0 -13 -4 -16 -10z"/>
<path d="M8158 31213 c7 -3 16 -2 19 1 4 3 -2 6 -13 5 -11 0 -14 -3 -6 -6z"/>
<path d="M8238 31213 c7 -3 16 -2 19 1 4 3 -2 6 -13 5 -11 0 -14 -3 -6 -6z"/>
<path d="M8575 31210 c3 -5 8 -10 11 -10 2 0 4 5 4 10 0 6 -5 10 -11 10 -5 0
-7 -4 -4 -10z"/>
<path d="M8930 31216 c0 -2 7 -7 16 -10 8 -3 12 -2 9 4 -6 10 -25 14 -25 6z"/>
<path d="M9228 31213 c6 -2 18 -2 25 0 6 3 1 5 -13 5 -14 0 -19 -2 -12 -5z"/>
<path d="M9406 31208 c3 -5 10 -6 15 -3 13 9 11 12 -6 12 -8 0 -12 -4 -9 -9z"/>
<path d="M9718 31213 c7 -3 16 -2 19 1 4 3 -2 6 -13 5 -11 0 -14 -3 -6 -6z"/>
<path d="M9830 31210 c-9 -6 -10 -10 -3 -10 6 0 15 5 18 10 8 12 4 12 -15 0z"/>
<path d="M9950 31215 c0 -7 30 -13 34 -7 3 4 -4 9 -15 9 -10 1 -19 0 -19 -2z"/>
<path d="M10386 31208 c3 -5 10 -6 15 -3 13 9 11 12 -6 12 -8 0 -12 -4 -9 -9z"/>
<path d="M10588 31213 c6 -2 18 -2 25 0 6 3 1 5 -13 5 -14 0 -19 -2 -12 -5z"/>
<path d="M11380 31206 c7 -7 13 -7 20 0 6 6 3 10 -10 10 -13 0 -16 -4 -10 -10z"/>
<path d="M11558 31213 c7 -3 16 -2 19 1 4 3 -2 6 -13 5 -11 0 -14 -3 -6 -6z"/>
<path d="M11860 31206 c7 -7 13 -7 20 0 6 6 3 10 -10 10 -13 0 -16 -4 -10 -10z"/>
<path d="M20380 31206 c7 -7 13 -7 20 0 6 6 3 10 -10 10 -13 0 -16 -4 -10 -10z"/>
<path d="M21517 31209 c7 -7 15 -10 18 -7 3 3 -2 9 -12 12 -14 6 -15 5 -6 -5z"/>
<path d="M22900 31206 c7 -7 13 -7 20 0 6 6 3 10 -10 10 -13 0 -16 -4 -10 -10z"/>
<path d="M23194 31208 c10 -6 22 -6 26 -2 5 5 -3 10 -18 11 -22 1 -24 0 -8 -9z"/>
<path d="M73 25815 c0 -8 4 -12 9 -9 5 3 6 10 3 15 -9 13 -12 11 -12 -6z"/>
<path d="M75 25629 c-4 -6 -5 -12 -2 -15 2 -3 7 2 10 11 7 17 1 20 -8 4z"/>
<path d="M69 25477 c6 -8 7 -18 3 -22 -4 -5 -1 -5 6 -1 10 6 10 11 1 22 -6 8
-14 14 -16 14 -3 0 0 -6 6 -13z"/>
<path d="M65 25400 c-3 -6 1 -7 9 -4 18 7 21 14 7 14 -6 0 -13 -4 -16 -10z"/>
<path d="M73 25325 c0 -8 4 -12 9 -9 5 3 6 10 3 15 -9 13 -12 11 -12 -6z"/>
<path d="M67 25259 c7 -7 15 -10 18 -7 3 3 -2 9 -12 12 -14 6 -15 5 -6 -5z"/>
<path d="M67 25199 c7 -7 15 -10 18 -7 3 3 -2 9 -12 12 -14 6 -15 5 -6 -5z"/>
<path d="M66 25142 c-3 -5 1 -9 9 -9 8 0 12 4 9 9 -3 4 -7 8 -9 8 -2 0 -6 -4
-9 -8z"/>
<path d="M73 25085 c0 -8 4 -12 9 -9 5 3 6 10 3 15 -9 13 -12 11 -12 -6z"/>
<path d="M65 24880 c3 -5 8 -10 11 -10 2 0 4 5 4 10 0 6 -5 10 -11 10 -5 0 -7
-4 -4 -10z"/>
<path d="M73 24845 c0 -8 4 -12 9 -9 5 3 6 10 3 15 -9 13 -12 11 -12 -6z"/>
<path d="M64 24748 c0 -10 1 -18 3 -18 1 0 7 8 12 18 7 13 6 19 -2 19 -7 0
-13 -9 -13 -19z"/>
<path d="M67 24659 c7 -7 15 -10 18 -7 3 3 -2 9 -12 12 -14 6 -15 5 -6 -5z"/>
<path d="M65 24400 c3 -5 8 -10 11 -10 2 0 4 5 4 10 0 6 -5 10 -11 10 -5 0 -7
-4 -4 -10z"/>
<path d="M68 24283 c7 -3 16 -2 19 1 4 3 -2 6 -13 5 -11 0 -14 -3 -6 -6z"/>
<path d="M70 24230 c-9 -6 -10 -10 -3 -10 6 0 15 5 18 10 8 12 4 12 -15 0z"/>
<path d="M67 24179 c7 -7 15 -10 18 -7 3 3 -2 9 -12 12 -14 6 -15 5 -6 -5z"/>
<path d="M73 24131 c0 -11 5 -18 9 -15 4 3 5 11 1 19 -7 21 -12 19 -10 -4z"/>
<path d="M60 24085 c0 -8 4 -15 10 -15 5 0 7 7 4 15 -4 8 -8 15 -10 15 -2 0
-4 -7 -4 -15z"/>
<path d="M75 24009 c-4 -6 -5 -12 -2 -15 2 -3 7 2 10 11 7 17 1 20 -8 4z"/>
<path d="M60 23919 c0 -5 5 -7 10 -4 6 3 10 8 10 11 0 2 -4 4 -10 4 -5 0 -10
-5 -10 -11z"/>
<path d="M68 23803 c7 -3 16 -2 19 1 4 3 -2 6 -13 5 -11 0 -14 -3 -6 -6z"/>
<path d="M66 23737 c3 -10 9 -15 12 -12 3 3 0 11 -7 18 -10 9 -11 8 -5 -6z"/>
<path d="M67 23699 c7 -7 15 -10 18 -7 3 3 -2 9 -12 12 -14 6 -15 5 -6 -5z"/>
<path d="M70 23660 c0 -5 5 -10 11 -10 5 0 7 5 4 10 -3 6 -8 10 -11 10 -2 0
-4 -4 -4 -10z"/>
<path d="M60 23605 c0 -8 4 -15 10 -15 5 0 7 7 4 15 -4 8 -8 15 -10 15 -2 0
-4 -7 -4 -15z"/>
<path d="M69 23523 c-13 -16 -12 -17 4 -4 9 7 17 15 17 17 0 8 -8 3 -21 -13z"/>
<path d="M68 23473 c7 -3 16 -2 19 1 4 3 -2 6 -13 5 -11 0 -14 -3 -6 -6z"/>
<path d="M70 23420 c0 -5 5 -10 11 -10 5 0 7 5 4 10 -3 6 -8 10 -11 10 -2 0
-4 -4 -4 -10z"/>
<path d="M60 23365 c0 -8 4 -15 10 -15 5 0 7 7 4 15 -4 8 -8 15 -10 15 -2 0
-4 -7 -4 -15z"/>
<path d="M66 23257 c3 -10 9 -15 12 -12 3 3 0 11 -7 18 -10 9 -11 8 -5 -6z"/>
<path d="M67 23219 c7 -7 15 -10 18 -7 3 3 -2 9 -12 12 -14 6 -15 5 -6 -5z"/>
<path d="M70 23180 c0 -5 5 -10 11 -10 5 0 7 5 4 10 -3 6 -8 10 -11 10 -2 0
-4 -4 -4 -10z"/>
<path d="M60 23125 c0 -8 4 -15 10 -15 5 0 7 7 4 15 -4 8 -8 15 -10 15 -2 0
-4 -7 -4 -15z"/>
<path d="M65 23040 c-3 -6 1 -7 9 -4 18 7 21 14 7 14 -6 0 -13 -4 -16 -10z"/>
<path d="M68 22993 c7 -3 16 -2 19 1 4 3 -2 6 -13 5 -11 0 -14 -3 -6 -6z"/>
<path d="M70 22940 c0 -5 5 -10 11 -10 5 0 7 5 4 10 -3 6 -8 10 -11 10 -2 0
-4 -4 -4 -10z"/>
<path d="M60 22885 c0 -8 4 -15 10 -15 5 0 7 7 4 15 -4 8 -8 15 -10 15 -2 0
-4 -7 -4 -15z"/>
<path d="M67 22739 c7 -7 15 -10 18 -7 3 3 -2 9 -12 12 -14 6 -15 5 -6 -5z"/>
<path d="M70 22700 c0 -5 5 -10 11 -10 5 0 7 5 4 10 -3 6 -8 10 -11 10 -2 0
-4 -4 -4 -10z"/>
<path d="M60 22645 c0 -8 4 -15 10 -15 5 0 7 7 4 15 -4 8 -8 15 -10 15 -2 0
-4 -7 -4 -15z"/>
<path d="M65 22560 c-3 -6 1 -7 9 -4 18 7 21 14 7 14 -6 0 -13 -4 -16 -10z"/>
<path d="M67 22527 c-3 -8 1 -14 8 -14 7 0 11 6 8 14 -3 7 -6 13 -8 13 -2 0
-5 -6 -8 -13z"/>
<path d="M70 22460 c0 -5 5 -10 11 -10 5 0 7 5 4 10 -3 6 -8 10 -11 10 -2 0
-4 -4 -4 -10z"/>
<path d="M60 22405 c0 -8 4 -15 10 -15 5 0 7 7 4 15 -4 8 -8 15 -10 15 -2 0
-4 -7 -4 -15z"/>
<path d="M67 22259 c7 -7 15 -10 18 -7 3 3 -2 9 -12 12 -14 6 -15 5 -6 -5z"/>
<path d="M70 22040 c-9 -6 -10 -10 -3 -10 6 0 15 5 18 10 8 12 4 12 -15 0z"/>
<path d="M73 21971 c0 -11 5 -18 9 -15 4 3 5 11 1 19 -7 21 -12 19 -10 -4z"/>
<path d="M61 21924 c0 -11 3 -14 6 -6 3 7 2 16 -1 19 -3 4 -6 -2 -5 -13z"/>
<path d="M75 21849 c-4 -6 -5 -12 -2 -15 2 -3 7 2 10 11 7 17 1 20 -8 4z"/>
<path d="M65 21760 c3 -5 8 -10 11 -10 2 0 4 5 4 10 0 6 -5 10 -11 10 -5 0 -7
-4 -4 -10z"/>
<path d="M69 21603 c-13 -16 -12 -17 4 -4 9 7 17 15 17 17 0 8 -8 3 -21 -13z"/>
<path d="M74 21572 c3 -5 0 -13 -6 -15 -9 -4 -10 -6 -1 -6 17 -1 25 16 12 25
-7 4 -9 3 -5 -4z"/>
<path d="M70 21500 c0 -5 5 -10 11 -10 5 0 7 5 4 10 -3 6 -8 10 -11 10 -2 0
-4 -4 -4 -10z"/>
<path d="M64 21391 c0 -11 5 -17 13 -14 10 4 11 9 2 19 -15 18 -15 18 -15 -5z"/>
<path d="M74 21332 c3 -5 0 -13 -6 -15 -9 -4 -10 -6 -1 -6 17 -1 25 16 12 25
-7 4 -9 3 -5 -4z"/>
<path d="M73 21249 c-2 -23 3 -25 10 -4 4 8 3 16 -1 19 -4 3 -9 -4 -9 -15z"/>
<path d="M66 21058 c3 -5 10 -6 15 -3 13 9 11 12 -6 12 -8 0 -12 -4 -9 -9z"/>
<path d="M66 20878 c3 -5 10 -6 15 -3 13 9 11 12 -6 12 -8 0 -12 -4 -9 -9z"/>
<path d="M66 20798 c3 -5 10 -6 15 -3 13 9 11 12 -6 12 -8 0 -12 -4 -9 -9z"/>
<path d="M65 20660 c-3 -6 1 -7 9 -4 18 7 21 14 7 14 -6 0 -13 -4 -16 -10z"/>
<path d="M66 20582 c-3 -5 1 -9 9 -9 8 0 12 4 9 9 -3 4 -7 8 -9 8 -2 0 -6 -4
-9 -8z"/>
<path d="M73 20545 c0 -8 4 -12 9 -9 5 3 6 10 3 15 -9 13 -12 11 -12 -6z"/>
<path d="M64 20432 c0 -10 6 -19 13 -19 8 0 9 6 2 19 -5 10 -11 18 -12 18 -2
0 -3 -8 -3 -18z"/>
<path d="M66 20102 c-3 -5 1 -9 9 -9 8 0 12 4 9 9 -3 4 -7 8 -9 8 -2 0 -6 -4
-9 -8z"/>
<path d="M70 20059 c0 -5 5 -7 10 -4 6 3 10 8 10 11 0 2 -4 4 -10 4 -5 0 -10
-5 -10 -11z"/>
<path d="M60 19986 c0 -2 8 -10 18 -17 15 -13 16 -12 3 4 -13 16 -21 21 -21
13z"/>
<path d="M73 19903 c4 -3 1 -13 -6 -22 -11 -14 -10 -14 5 -2 16 12 16 31 1 31
-4 0 -3 -3 0 -7z"/>
<path d="M66 19622 c-3 -5 1 -9 9 -9 8 0 12 4 9 9 -3 4 -7 8 -9 8 -2 0 -6 -4
-9 -8z"/>
<path d="M65 19440 c-3 -6 1 -7 9 -4 18 7 21 14 7 14 -6 0 -13 -4 -16 -10z"/>
<path d="M65 19200 c-3 -6 1 -7 9 -4 18 7 21 14 7 14 -6 0 -13 -4 -16 -10z"/>
<path d="M76 19113 c-6 -14 -5 -15 5 -6 7 7 10 15 7 18 -3 3 -9 -2 -12 -12z"/>
<path d="M66 18882 c-3 -5 1 -9 9 -9 8 0 12 4 9 9 -3 4 -7 8 -9 8 -2 0 -6 -4
-9 -8z"/>
<path d="M73 18329 c-2 -23 3 -25 10 -4 4 8 3 16 -1 19 -4 3 -9 -4 -9 -15z"/>
<path d="M66 17678 c3 -5 10 -6 15 -3 13 9 11 12 -6 12 -8 0 -12 -4 -9 -9z"/>
<path d="M73 17425 c0 -8 4 -12 9 -9 5 3 6 10 3 15 -9 13 -12 11 -12 -6z"/>
</g>
</svg>
