<?xml version="1.0" standalone="no"?>
<!DOCTYPE svg PUBLIC "-//W3C//DTD SVG 20010904//EN"
 "http://www.w3.org/TR/2001/REC-SVG-20010904/DTD/svg10.dtd">
<svg version="1.0" xmlns="http://www.w3.org/2000/svg"
 width="3136.000000pt" height="3136.000000pt" viewBox="0 0 3136.000000 3136.000000"
 preserveAspectRatio="xMidYMid meet">
<metadata>
Created by potrace 1.11, written by Peter Selinger 2001-2013
</metadata>
<g transform="translate(0.000000,3136.000000) scale(0.100000,-0.100000)"
fill="#000000" stroke="none">
<path d="M15080 31344 c-30 -2 -154 -8 -275 -14 -340 -17 -1022 -77 -1072 -95
-10 -3 -13 -804 -13 -3957 l0 -3953 -128 -34 c-176 -46 -564 -176 -762 -254
-1500 -595 -2769 -1623 -3655 -2962 -642 -969 -1051 -2046 -1214 -3195 -142
-1005 -89 -2029 155 -3005 628 -2504 2474 -4548 4904 -5430 1584 -575 3325
-619 4945 -125 1518 462 2864 1388 3856 2650 1240 1578 1821 3585 1618 5590
-75 739 -240 1417 -514 2105 -869 2185 -2713 3884 -4953 4564 -108 33 -228 68
-267 78 l-70 18 -5 3955 -5 3955 -90 12 c-171 22 -620 63 -880 79 -239 15
-1410 28 -1575 18z m1005 -12684 c523 -77 1006 -286 1417 -611 132 -105 352
-325 456 -457 507 -640 727 -1457 607 -2256 -90 -599 -363 -1153 -785 -1590
-533 -553 -1233 -865 -2000 -893 -488 -17 -945 81 -1385 297 -868 426 -1456
1228 -1607 2191 -19 124 -22 183 -22 429 0 246 3 305 22 429 70 444 224 840
470 1201 500 736 1277 1195 2167 1279 157 15 497 5 660 -19z"/>
</g>
</svg>
